<svg width="30" height="24" viewBox="0 0 30 24" fill="white" xmlns="http://www.w3.org/2000/svg">
<path d="M0 2C0 0.89543 0.89543 0 2 0H28C29.1046 0 30 0.89543 30 2C30 3.10457 29.1046 4 28 4H2C0.89543 4 0 3.10457 0 2ZM0 11.7436C0 10.639 0.89543 9.74359 2 9.74359H28C29.1046 9.74359 30 10.639 30 11.7436C30 12.8482 29.1046 13.7436 28 13.7436H2C0.89543 13.7436 0 12.8482 0 11.7436ZM0 22C0 20.8954 0.89543 20 2 20H28C29.1046 20 30 20.8954 30 22C30 23.1046 29.1046 24 28 24H2C0.89543 24 0 23.1046 0 22Z" />
</svg>
