<svg width="30" height="24" viewBox="0 0 30 24" fill="white" xmlns="http://www.w3.org/2000/svg">
<path fill-rule="evenodd" clip-rule="evenodd" d="M0.414852 0.780556C1.08832 -0.0949525 2.34401 -0.258738 3.21952 0.41473L15.0001 9.47671L26.7807 0.41473C27.6562 -0.258738 28.9119 -0.0949525 29.5853 0.780556C30.2588 1.65606 30.095 2.91176 29.2195 3.58523L18.2803 12L29.2195 20.4147C30.095 21.0882 30.2588 22.3439 29.5853 23.2194C28.9119 24.0949 27.6562 24.2587 26.7807 23.5852L15.0001 14.5232L3.21952 23.5852C2.34401 24.2587 1.08832 24.0949 0.414852 23.2194C-0.258616 22.3439 -0.0948304 21.0882 0.780678 20.4147L11.7199 12L0.780678 3.58523C-0.0948304 2.91176 -0.258616 1.65606 0.414852 0.780556Z"/>
</svg>
